<?xml version="1.0" encoding="UTF-8" standalone="no"?>
<!-- Created with Inkscape (http://www.inkscape.org/) -->

<svg viewBox="10 114 195 107" xmlns="http://www.w3.org/2000/svg" xmlns:inkscape="http://www.inkscape.org/namespaces/inkscape" xmlns:sodipodi="http://sodipodi.sourceforge.net/DTD/sodipodi-0.0"><sodipodi:namedview
     id="namedview1"
     pagecolor="#ffffff"
     bordercolor="#000000"
     borderopacity="0.25"
     inkscape:showpageshadow="2"
     inkscape:pageopacity="0.0"
     inkscape:pagecheckerboard="0"
     inkscape:deskcolor="#d1d1d1"
     inkscape:document-units="mm"
     inkscape:zoom="0.5121316"
     inkscape:cx="310.46708"
     inkscape:cy="608.2421"
     inkscape:window-width="1920"
     inkscape:window-height="1009"
     inkscape:window-x="-8"
     inkscape:window-y="-8"
     inkscape:window-maximized="1"
     inkscape:current-layer="layer1" /><defs
     id="defs1"><inkscape:path-effect
       effect="powerclip"
       id="path-effect24"
       is_visible="true"
       lpeversion="1"
       inverse="true"
       flatten="false"
       hide_clip="false"
       message="Utilice la regla de relleno parimpar en el diálogo &lt;b&gt;Relleno y borde&lt;/b&gt; si el resultado no está aplanada después de convertir el recorte en trayectos." /><inkscape:path-effect
       effect="powerclip"
       id="path-effect19"
       is_visible="true"
       lpeversion="1"
       inverse="true"
       flatten="false"
       hide_clip="false"
       message="Utilice la regla de relleno parimpar en el diálogo &lt;b&gt;Relleno y borde&lt;/b&gt; si el resultado no está aplanada después de convertir el recorte en trayectos." /><inkscape:path-effect
       effect="powerclip"
       id="path-effect12"
       is_visible="true"
       lpeversion="1"
       inverse="true"
       flatten="false"
       hide_clip="false"
       message="Utilice la regla de relleno parimpar en el diálogo &lt;b&gt;Relleno y borde&lt;/b&gt; si el resultado no está aplanada después de convertir el recorte en trayectos." /><inkscape:path-effect
       effect="powerclip"
       id="path-effect4"
       is_visible="true"
       lpeversion="1"
       inverse="true"
       flatten="false"
       hide_clip="false"
       message="Utilice la regla de relleno parimpar en el diálogo &lt;b&gt;Relleno y borde&lt;/b&gt; si el resultado no está aplanada después de convertir el recorte en trayectos." /><inkscape:path-effect
       effect="powerclip"
       id="path-effect14"
       is_visible="true"
       lpeversion="1"
       inverse="true"
       flatten="false"
       hide_clip="false"
       message="Utilice la regla de relleno parimpar en el diálogo &lt;b&gt;Relleno y borde&lt;/b&gt; si el resultado no está aplanada después de convertir el recorte en trayectos." /><inkscape:path-effect
       effect="powerclip"
       id="path-effect9"
       is_visible="true"
       lpeversion="1"
       inverse="true"
       flatten="false"
       hide_clip="false"
       message="Utilice la regla de relleno parimpar en el diálogo &lt;b&gt;Relleno y borde&lt;/b&gt; si el resultado no está aplanada después de convertir el recorte en trayectos." /><inkscape:path-effect
       effect="powerclip"
       id="path-effect5"
       is_visible="true"
       lpeversion="1"
       inverse="true"
       flatten="false"
       hide_clip="false"
       message="Utilice la regla de relleno parimpar en el diálogo &lt;b&gt;Relleno y borde&lt;/b&gt; si el resultado no está aplanada después de convertir el recorte en trayectos." /><clipPath
       clipPathUnits="userSpaceOnUse"
       id="clipPath5"><path
         style="display:none;fill:none;fill-rule:evenodd;stroke:#000000;stroke-width:9.83501;stroke-linecap:round;stroke-opacity:0"
         d="m -4.9725784,122.69998 -0.068496,39.59082 h 2.1956839 c 0.8333717,-0.19408 1.0048908,-1.0049 1.0048908,-1.0049 v -37.22976 c 0,0 -0.1188314,-1.05494 -1.123444,-1.32893 z"
         id="path5"
         sodipodi:nodetypes="ccccccc" /><path
         id="lpe_path-effect5"
         style="fill:none;fill-rule:evenodd;stroke:#000000;stroke-width:9.83501;stroke-linecap:round;stroke-opacity:0"
         class="powerclip"
         d="m -30.621012,101.31942 h 54.171886 v 99.8809 h -54.171886 z m 25.6484336,21.38056 -0.068496,39.59082 h 2.1956839 c 0.8333717,-0.19408 1.0048908,-1.0049 1.0048908,-1.0049 v -37.22976 c 0,0 -0.1188314,-1.05494 -1.123444,-1.32893 z" /></clipPath><clipPath
       clipPathUnits="userSpaceOnUse"
       id="clipPath8"><path
         style="display:none;fill:#ffffff;fill-rule:evenodd;stroke:#000000;stroke-width:9.83501;stroke-linecap:round;stroke-opacity:0"
         d="m 106.89991,149.13929 v -15.11484 h 1.96356 c 1.13013,0.32289 1.34709,1.43842 1.34709,1.43842 l -0.0457,11.91835 c 0,0 -0.0691,1.38631 -1.25633,1.75163 z"
         id="path9"
         sodipodi:nodetypes="ccccccc" /><path
         id="lpe_path-effect9"
         style="fill:#ffffff;fill-rule:evenodd;stroke:#000000;stroke-width:9.83501;stroke-linecap:round;stroke-opacity:0"
         class="powerclip"
         d="m 64.412856,101.2907 h 89.316534 v 99.86119 H 64.412856 Z m 42.487054,47.84859 2.00862,-0.006 c 1.18723,-0.36532 1.25633,-1.75163 1.25633,-1.75163 l 0.0457,-11.91835 c 0,0 -0.21696,-1.11553 -1.34709,-1.43842 h -1.96356 z" /></clipPath><clipPath
       clipPathUnits="userSpaceOnUse"
       id="clipPath14"><path
         style="display:none;fill:none;fill-rule:evenodd;stroke:#000000;stroke-width:9.83501;stroke-linecap:round;stroke-opacity:0"
         d="m 161.97094,124.29797 0.0114,54.1235 1.98638,-0.0114 c 0.98178,-0.18265 1.26985,-1.3095 1.26985,-1.3095 l 0.0544,-50.86186 c 0,0 -0.11417,-1.74666 -1.49551,-1.91789 z"
         id="path14"
         sodipodi:nodetypes="ccccccc" /><path
         id="lpe_path-effect14"
         style="fill:none;fill-rule:evenodd;stroke:#000000;stroke-width:9.83501;stroke-linecap:round;stroke-opacity:0"
         class="powerclip"
         d="m 136.25362,101.54883 h 55.49875 v 99.56544 h -55.49875 z m 25.71732,22.74914 0.0114,54.1235 1.98638,-0.0114 c 0.98178,-0.18265 1.26985,-1.3095 1.26985,-1.3095 l 0.0544,-50.86186 c 0,0 -0.11417,-1.74666 -1.49551,-1.91789 z" /></clipPath><clipPath
       clipPathUnits="userSpaceOnUse"
       id="clipPath3"><path
         style="display:none;opacity:0.282119;fill:#ffffff;fill-rule:evenodd;stroke:#000000;stroke-width:9.83501;stroke-linecap:round;stroke-opacity:0"
         d="m 59.436844,201.85763 -0.0081,2.52665 h 2.986775 c 0.589891,-0.28189 1.097211,-1.87663 -0.234098,-2.48629 z"
         id="path4"
         sodipodi:nodetypes="ccccc" /><path
         id="lpe_path-effect4"
         style="opacity:0.282119;fill:#ffffff;fill-rule:evenodd;stroke:#000000;stroke-width:9.83501;stroke-linecap:round;stroke-opacity:0"
         class="powerclip"
         d="m 48.386029,190.69558 h 25.793679 v 27.93024 H 48.386029 Z m 11.050815,11.16205 -0.0081,2.52665 h 2.986775 c 0.589891,-0.28189 1.097211,-1.87663 -0.234098,-2.48629 z" /></clipPath><clipPath
       clipPathUnits="userSpaceOnUse"
       id="clipPath11"><path
         style="display:none;opacity:0.329801;fill:#ffffff;fill-rule:evenodd;stroke:#000000;stroke-width:9.83501;stroke-linecap:round;stroke-opacity:0"
         d="m 69.83199,205.37477 h 2.363123 l -1.175853,-3.15083 z"
         id="path12" /><path
         id="lpe_path-effect12"
         style="opacity:0.329801;fill:#ffffff;fill-rule:evenodd;stroke:#000000;stroke-width:9.83501;stroke-linecap:round;stroke-opacity:0"
         class="powerclip"
         d="m 55.443398,190.76528 h 31.419967 v 27.8593 H 55.443398 Z m 14.388592,14.60949 h 2.363123 l -1.175853,-3.15083 z" /></clipPath><clipPath
       clipPathUnits="userSpaceOnUse"
       id="clipPath11-0"><path
         style="display:none;opacity:0.329801;fill:#ffffff;fill-rule:evenodd;stroke:#000000;stroke-width:9.83501;stroke-linecap:round;stroke-opacity:0"
         d="m 69.83199,205.37477 h 2.363123 l -1.175853,-3.15083 z"
         id="path12-2" /><path
         id="lpe_path-effect12-1"
         style="opacity:0.329801;fill:#ffffff;fill-rule:evenodd;stroke:#000000;stroke-width:9.83501;stroke-linecap:round;stroke-opacity:0"
         class="powerclip"
         d="m 55.443398,190.76528 h 31.419967 v 27.8593 H 55.443398 Z m 14.388592,14.60949 h 2.363123 l -1.175853,-3.15083 z" /></clipPath><inkscape:path-effect
       effect="powerclip"
       id="path-effect12-9"
       is_visible="true"
       lpeversion="1"
       inverse="true"
       flatten="false"
       hide_clip="false"
       message="Utilice la regla de relleno parimpar en el diálogo &lt;b&gt;Relleno y borde&lt;/b&gt; si el resultado no está aplanada después de convertir el recorte en trayectos." /><clipPath
       clipPathUnits="userSpaceOnUse"
       id="clipath_lpe_path-effect12-9"><path
         style="display:none;opacity:0.329801;fill:#ffffff;fill-rule:evenodd;stroke:#000000;stroke-width:9.83501;stroke-linecap:round;stroke-opacity:0"
         d="m 69.83199,205.37477 h 2.363123 l -1.175853,-3.15083 z"
         id="path16" /><path
         id="lpe_path-effect12-9"
         style="opacity:0.329801;fill:#ffffff;fill-rule:evenodd;stroke:#000000;stroke-width:9.83501;stroke-linecap:round;stroke-opacity:0"
         class="powerclip"
         d="m 55.443398,190.76528 h 31.419967 v 27.8593 H 55.443398 Z m 14.388592,14.60949 h 2.363123 l -1.175853,-3.15083 z" /></clipPath><clipPath
       clipPathUnits="userSpaceOnUse"
       id="clipPath18"><path
         style="display:none;opacity:0.513907;fill:#ffffff;fill-rule:evenodd;stroke:#000000;stroke-width:9.83501;stroke-linecap:round;stroke-opacity:0"
         d="m 100.46869,201.90606 v 5.63451 h 2.42171 c 2.06653,-0.74266 1.95351,-2.66388 1.95351,-2.66388 0,0 0.2099,-2.06652 -1.95351,-2.98677 z"
         id="path19"
         sodipodi:nodetypes="cccccc" /><path
         id="lpe_path-effect19"
         style="opacity:0.513907;fill:#ffffff;fill-rule:evenodd;stroke:#000000;stroke-width:9.83501;stroke-linecap:round;stroke-opacity:0"
         class="powerclip"
         d="m 89.485629,190.81749 h 26.438241 v 27.803 H 89.485629 Z m 10.983061,11.08857 v 5.63451 h 2.42171 c 2.06653,-0.74266 1.95351,-2.66388 1.95351,-2.66388 0,0 0.2099,-2.06652 -1.95351,-2.98677 z" /></clipPath><clipPath
       clipPathUnits="userSpaceOnUse"
       id="clipPath24"><path
         style="display:none;opacity:0.513907;fill:#ffffff;fill-rule:evenodd;stroke:#000000;stroke-width:9.83501;stroke-linecap:round;stroke-opacity:0"
         d="m 120.72947,201.77929 -0.0161,2.63653 h 2.6257 c 1.64748,-0.0182 1.73165,-2.56274 0,-2.61842 z"
         id="path24"
         sodipodi:nodetypes="ccccc" /><path
         id="lpe_path-effect24"
         style="opacity:0.513907;fill:#ffffff;fill-rule:evenodd;stroke:#000000;stroke-width:9.83501;stroke-linecap:round;stroke-opacity:0"
         class="powerclip"
         d="m 109.74728,190.85843 h 29.0989 v 27.76212 h -29.0989 z m 10.98219,10.92086 -0.0161,2.63653 h 2.6257 c 1.64748,-0.0182 1.73165,-2.56274 0,-2.61842 z" /></clipPath><clipPath
       clipPathUnits="userSpaceOnUse"
       id="clipath_lpe_path-effect12-9-6"><path
         style="display:none;opacity:0.329801;fill:#ffffff;fill-rule:evenodd;stroke:#000000;stroke-width:9.83501;stroke-linecap:round;stroke-opacity:0"
         d="m 69.83199,205.37477 h 2.363123 l -1.175853,-3.15083 z"
         id="path16-7" /><path
         id="lpe_path-effect12-9-0"
         style="opacity:0.329801;fill:#ffffff;fill-rule:evenodd;stroke:#000000;stroke-width:9.83501;stroke-linecap:round;stroke-opacity:0"
         class="powerclip"
         d="m 55.443398,190.76528 h 31.419967 v 27.8593 H 55.443398 Z m 14.388592,14.60949 h 2.363123 l -1.175853,-3.15083 z" /></clipPath><inkscape:path-effect
       effect="powerclip"
       id="path-effect12-9-5"
       is_visible="true"
       lpeversion="1"
       inverse="true"
       flatten="false"
       hide_clip="false"
       message="Utilice la regla de relleno parimpar en el diálogo &lt;b&gt;Relleno y borde&lt;/b&gt; si el resultado no está aplanada después de convertir el recorte en trayectos." /><clipPath
       clipPathUnits="userSpaceOnUse"
       id="clipath_lpe_path-effect12-9-5"><path
         style="display:none;opacity:0.329801;fill:#ffffff;fill-rule:evenodd;stroke:#000000;stroke-width:9.83501;stroke-linecap:round;stroke-opacity:0"
         d="m 69.83199,205.37477 h 2.363123 l -1.175853,-3.15083 z"
         id="path27" /><path
         id="lpe_path-effect12-9-5"
         style="opacity:0.329801;fill:#ffffff;fill-rule:evenodd;stroke:#000000;stroke-width:9.83501;stroke-linecap:round;stroke-opacity:0"
         class="powerclip"
         d="m 55.443398,190.76528 h 31.419967 v 27.8593 H 55.443398 Z m 14.388592,14.60949 h 2.363123 l -1.175853,-3.15083 z" /></clipPath></defs><g
     inkscape:label="Capa 1"
     inkscape:groupmode="layer"
     id="layer1"><path
       style="display:inline;fill:#ffffff;fill-rule:evenodd;stroke:#000000;stroke-width:9.83501;stroke-linecap:round;stroke-opacity:0"
       d="m -20.69755,191.28282 h 16.6613662 v -18.69495 c 1.6790525,0.0646 9.1702094,0.41911 13.40013,-2.74526 4.5205258,-3.16437 4.2622098,-9.04105 4.2622098,-9.04105 v -38.29531 c -0.6135,-5.13403 -2.906052,-6.90995 -2.906052,-6.90995 -3.293526,-4.06847 -11.7856565,-4.19763 -11.7856565,-4.19763 l -19.5351295,-0.12916 z"
       id="path1"
       sodipodi:nodetypes="cccccccccc"
       clip-path="url(#clipPath5)"
       inkscape:path-effect="#path-effect5"
       inkscape:original-d="m -20.69755,191.28282 h 16.6613662 v -18.69495 c 1.6790525,0.0646 9.1702094,0.41911 13.40013,-2.74526 4.5205258,-3.16437 4.2622098,-9.04105 4.2622098,-9.04105 v -38.29531 c -0.6135,-5.13403 -2.906052,-6.90995 -2.906052,-6.90995 -3.293526,-4.06847 -11.7856565,-4.19763 -11.7856565,-4.19763 l -19.5351295,-0.12916 z"
       transform="matrix(0.74537115,0,0,0.74537115,31.875524,35.552794)" /><path
       style="fill:#ffffff;fill-rule:evenodd;stroke:#000000;stroke-width:7.33073;stroke-linecap:round;stroke-opacity:0"
       d="m 44.979685,118.56851 h 39.312479 v 16.72058 h -13.4752 v 7.46097 h 10.73417 v 11.84128 H 70.8651 v 7.46097 h 13.767434 v 16.14864 H 44.843538 v -59.66294 z"
       id="path6" /><path
       style="display:inline;fill:#ffffff;fill-rule:evenodd;stroke:#000000;stroke-width:9.83501;stroke-linecap:round;stroke-opacity:0"
       d="M 106.87815,191.21824 H 74.330361 v -79.88891 h 33.893809 c 34.88745,-2.00923 34.0655,20.36624 34.0655,20.36624 v 14.61255 c 0.36531,10.22878 -6.02768,14.42989 -6.02768,14.42989 l 6.40903,30.49638 h -32.52895 l -1.10053,-24.58844 -2.19568,0.0323 z"
       id="path7"
       clip-path="url(#clipPath8)"
       inkscape:path-effect="#path-effect9"
       inkscape:original-d="M 106.87815,191.21824 H 74.330361 v -79.88891 h 33.893809 c 34.88745,-2.00923 34.0655,20.36624 34.0655,20.36624 v 14.61255 c 0.36531,10.22878 -6.02768,14.42989 -6.02768,14.42989 l 6.40903,30.49638 h -32.52895 l -1.10053,-24.58844 -2.19568,0.0323 z"
       sodipodi:nodetypes="cccccccccccc"
       transform="matrix(0.74537115,0,0,0.74537115,31.875524,35.552794)" /><path
       style="display:inline;fill:#ffffff;fill-rule:evenodd;stroke:#000000;stroke-width:9.83501;stroke-linecap:round;stroke-opacity:0"
       d="m 146.17112,191.15037 v -79.68404 h 19.58995 c 15.79982,0 16.0738,14.42989 16.0738,14.42989 v 51.00691 c 0,0 -0.39516,14.42206 -16.50761,14.2929 z"
       id="path10"
       sodipodi:nodetypes="ccccccc"
       clip-path="url(#clipPath14)"
       inkscape:path-effect="#path-effect14"
       inkscape:original-d="m 146.17112,191.15037 v -79.68404 h 19.58995 c 15.79982,0 16.0738,14.42989 16.0738,14.42989 v 51.00691 c 0,0 -0.39516,14.42206 -16.50761,14.2929 z"
       transform="matrix(0.74537115,0,0,0.74537115,31.875524,35.552794)" /><path
       style="fill:#ffffff;fill-rule:evenodd;stroke:#000000;stroke-width:7.33073;stroke-linecap:round;stroke-opacity:0"
       d="m 170.24038,118.75463 h 11.81721 v 50.31339 c 0,0 0.49786,0.91881 1.20399,0.94823 0.36902,0.0154 0.77742,-0.15966 1.23887,-0.94823 v -50.46548 h 11.87484 v 52.40293 c -0.78285,8.64535 -13.25872,8.23114 -13.25872,8.23114 0,0 -12.19374,0.69093 -13.04466,-9.14571 l 0.006,-51.34831 z"
       id="path15"
       sodipodi:nodetypes="cccscccccccc" /><path
       style="opacity:1;fill:#ffffff;fill-rule:evenodd;stroke:#000000;stroke-width:9.83501;stroke-linecap:round;stroke-opacity:0"
       d="m 58.351021,208.70826 0.07735,-8.04832 3.572173,0.0342 c 0.921854,0.26906 1.499628,0.60852 1.819559,1.07793 0.508119,0.74553 0.417988,1.62767 0.417988,1.62767 -0.03681,0.53367 -0.354253,1.06567 -0.774694,1.41527 -0.622854,0.5179 -1.417189,0.73095 -1.417189,0.73095 l -2.568611,0.0229 -0.03425,3.13941 z"
       id="path2"
       sodipodi:nodetypes="cccscscccc"
       clip-path="url(#clipPath3)"
       inkscape:path-effect="#path-effect4"
       inkscape:original-d="m 58.351021,208.70826 0.07735,-8.04832 3.572173,0.0342 c 0.921854,0.26906 1.499628,0.60852 1.819559,1.07793 0.508119,0.74553 0.417988,1.62767 0.417988,1.62767 -0.03681,0.53367 -0.354253,1.06567 -0.774694,1.41527 -0.622854,0.5179 -1.417189,0.73095 -1.417189,0.73095 l -2.568611,0.0229 -0.03425,3.13941 z"
       transform="matrix(0.74537115,0,0,0.74537115,31.875524,35.552794)" /><path
       style="opacity:1;fill:#ffffff;fill-rule:evenodd;stroke:#000000;stroke-width:9.83501;stroke-linecap:round;stroke-opacity:0"
       d="m 67.491699,208.6626 2.968173,-7.97982 h 0.947533 l 3.196492,8.00265 h -1.164436 l -0.810541,-2.21472 h -3.025253 l -1.027444,2.2033 z"
       id="path8"
       sodipodi:nodetypes="ccccccccc"
       clip-path="url(#clipPath11)"
       inkscape:path-effect="#path-effect12"
       inkscape:original-d="m 67.491699,208.6626 2.968173,-7.97982 h 0.947533 l 3.196492,8.00265 h -1.164436 l -0.810541,-2.21472 h -3.025253 l -1.027444,2.2033 z"
       transform="matrix(0.74537115,0,0,0.74537115,31.875524,35.552794)" /><path
       style="fill:#ffffff;fill-rule:evenodd;stroke:#000000;stroke-width:9.83501;stroke-linecap:round;stroke-opacity:0"
       d="m 67.491699,208.6626 2.968173,-7.97982 h 0.947533 l 3.196492,8.00265 h -1.164436 l -0.810541,-2.21472 h -3.025253 l -1.027444,2.2033 z"
       id="path8-8"
       sodipodi:nodetypes="ccccccccc"
       clip-path="url(#clipath_lpe_path-effect12-9)"
       inkscape:path-effect="#path-effect12-9"
       inkscape:original-d="m 67.491699,208.6626 2.968173,-7.97982 h 0.947533 l 3.196492,8.00265 h -1.164436 l -0.810541,-2.21472 h -3.025253 l -1.027444,2.2033 z"
       transform="matrix(0.74537115,0,0,0.74537115,47.63237,35.679574)" /><path
       style="fill:#ffffff;fill-rule:evenodd;stroke:#000000;stroke-width:9.83501;stroke-linecap:round;stroke-opacity:0"
       d="m 67.491699,208.6626 2.968173,-7.97982 h 0.947533 l 3.196492,8.00265 h -1.164436 l -0.810541,-2.21472 h -3.025253 l -1.027444,2.2033 z"
       id="path8-8-3"
       sodipodi:nodetypes="ccccccccc"
       clip-path="url(#clipath_lpe_path-effect12-9-5)"
       inkscape:path-effect="#path-effect12-9-5"
       inkscape:original-d="m 67.491699,208.6626 2.968173,-7.97982 h 0.947533 l 3.196492,8.00265 h -1.164436 l -0.810541,-2.21472 h -3.025253 l -1.027444,2.2033 z"
       transform="matrix(0.74537115,0,0,0.74537115,82.147394,35.54528)" /><path
       style="opacity:1;fill:#ffffff;fill-rule:evenodd;stroke:#000000;stroke-width:7.33073;stroke-linecap:round;stroke-opacity:0"
       d="m 90.170354,191.14708 v -5.95157 h 0.79302 l 3.40368,4.85025 v -4.85025 h 0.73179 v 5.93942 h -0.81688 l -3.31859,-4.96937 v 5.00341 z"
       id="path13" /><path
       style="opacity:1;fill:#ffffff;fill-rule:evenodd;stroke:#000000;stroke-width:9.83501;stroke-linecap:round;stroke-opacity:0"
       d="m 99.403134,200.75978 v 7.94321 h 3.261236 c 3.22895,-0.85567 3.34196,-3.79401 3.34196,-3.79401 0,0 0.0161,-3.3581 -3.39039,-4.13305 z"
       id="path17"
       sodipodi:nodetypes="cccccc"
       clip-path="url(#clipPath18)"
       inkscape:path-effect="#path-effect19"
       inkscape:original-d="m 99.403134,200.75978 v 7.94321 h 3.261236 c 3.22895,-0.85567 3.34196,-3.79401 3.34196,-3.79401 0,0 0.0161,-3.3581 -3.39039,-4.13305 z"
       transform="matrix(0.74537115,0,0,0.74537115,31.875524,35.552794)" /><path
       style="opacity:1;fill:#ffffff;fill-rule:evenodd;stroke:#000000;stroke-width:7.33073;stroke-linecap:round;stroke-opacity:0"
       d="m 113.98926,185.17849 v 5.84582 h 3.67598 v -0.6467 h -3.09736 v -2.16134 h 2.72295 v -0.59564 h -2.68891 v -1.72737 h 3.09735 v -0.71477 z"
       id="path20" /><path
       style="opacity:1;fill:#ffffff;fill-rule:evenodd;stroke:#000000;stroke-width:9.83501;stroke-linecap:round;stroke-opacity:0"
       d="m 119.66478,208.70299 v -7.92706 h 3.5357 c 2.35713,0.35518 2.42171,2.454 2.42171,2.454 0,0 -0.14531,1.79207 -1.67906,2.06653 l 1.77592,3.39039 h -0.98482 l -1.904,-3.29781 h -2.14833 l -0.0161,3.31396 z"
       id="path21"
       sodipodi:nodetypes="ccccccccccc"
       clip-path="url(#clipPath24)"
       inkscape:path-effect="#path-effect24"
       inkscape:original-d="m 119.66478,208.70299 v -7.92706 h 3.5357 c 2.35713,0.35518 2.42171,2.454 2.42171,2.454 0,0 -0.14531,1.79207 -1.67906,2.06653 l 1.77592,3.39039 h -0.98482 l -1.904,-3.29781 h -2.14833 l -0.0161,3.31396 z"
       transform="matrix(0.74537115,0,0,0.74537115,31.875524,35.552794)" /><path
       style="opacity:1;fill:#ffffff;fill-rule:evenodd;stroke:#000000;stroke-width:7.33073;stroke-linecap:round;stroke-opacity:0"
       d="m 128.60806,191.03282 h 0.79986 v -5.80327 h -0.81688 z"
       id="path25" /><path
       style="opacity:1;fill:#ffffff;fill-rule:evenodd;stroke:#000000;stroke-width:7.33073;stroke-linecap:round;stroke-opacity:0"
       d="m 128.47617,184.7743 0.79985,-1.18703 0.82115,0.004 -0.95303,1.19129 z"
       id="path26"
       sodipodi:nodetypes="ccccc" /></g></svg>
